<svg width="51" height="51" viewBox="0 0 51 51" fill="none" xmlns="http://www.w3.org/2000/svg">
<circle cx="25.338" cy="25.0138" r="25.0138" fill="#673D89"/>
<path d="M25.3379 20.9792C24.2679 20.9792 23.2417 21.4043 22.4851 22.1609C21.7285 22.9175 21.3034 23.9437 21.3034 25.0137C21.3034 26.0837 21.7285 27.1099 22.4851 27.8665C23.2417 28.6231 24.2679 29.0482 25.3379 29.0482C26.4079 29.0482 27.4341 28.6231 28.1907 27.8665C28.9473 27.1099 29.3724 26.0837 29.3724 25.0137C29.3724 23.9437 28.9473 22.9175 28.1907 22.1609C27.4341 21.4043 26.4079 20.9792 25.3379 20.9792ZM25.3379 18.2896C27.1213 18.2896 28.8316 18.998 30.0926 20.259C31.3536 21.52 32.0621 23.2304 32.0621 25.0137C32.0621 26.7971 31.3536 28.5074 30.0926 29.7684C28.8316 31.0294 27.1213 31.7378 25.3379 31.7378C23.5546 31.7378 21.8443 31.0294 20.5832 29.7684C19.3222 28.5074 18.6138 26.7971 18.6138 25.0137C18.6138 23.2304 19.3222 21.52 20.5832 20.259C21.8443 18.998 23.5546 18.2896 25.3379 18.2896ZM34.0793 17.9534C34.0793 18.3992 33.9022 18.8268 33.5869 19.142C33.2717 19.4573 32.8441 19.6344 32.3983 19.6344C31.9524 19.6344 31.5249 19.4573 31.2096 19.142C30.8943 18.8268 30.7172 18.3992 30.7172 17.9534C30.7172 17.5075 30.8943 17.0799 31.2096 16.7647C31.5249 16.4494 31.9524 16.2723 32.3983 16.2723C32.8441 16.2723 33.2717 16.4494 33.5869 16.7647C33.9022 17.0799 34.0793 17.5075 34.0793 17.9534ZM25.3379 14.2551C22.0108 14.2551 21.4675 14.2645 19.9196 14.3331C18.8653 14.3828 18.1579 14.524 17.5016 14.7796C16.9524 14.9812 16.4559 15.3044 16.0492 15.725C15.6283 16.1317 15.3046 16.6281 15.1024 17.1774C14.8469 17.8364 14.7057 18.5424 14.6573 19.5954C14.5874 21.0801 14.5793 21.5992 14.5793 25.0137C14.5793 28.3408 14.5887 28.8841 14.6573 30.432C14.7071 31.485 14.8483 32.1937 15.1024 32.8487C15.3311 33.4337 15.6 33.8546 16.0465 34.3011C16.4997 34.7529 16.9206 35.0233 17.4989 35.2465C18.1633 35.5034 18.8706 35.6459 19.9196 35.6943C21.4043 35.7643 21.9234 35.7723 25.3379 35.7723C28.665 35.7723 29.2083 35.7629 30.7562 35.6943C31.8079 35.6446 32.5166 35.5034 33.1729 35.2492C33.7213 35.0465 34.2175 34.724 34.6253 34.3051C35.0785 33.8519 35.3488 33.431 35.5721 32.8527C35.8276 32.1897 35.9701 31.481 36.0185 30.432C36.0885 28.9473 36.0965 28.4282 36.0965 25.0137C36.0965 21.6866 36.0871 21.1433 36.0185 19.5954C35.9688 18.5437 35.8276 17.8337 35.5721 17.1774C35.3694 16.6287 35.0463 16.1324 34.6266 15.725C34.2201 15.3038 33.7236 14.9802 33.1742 14.7782C32.5153 14.5227 31.8079 14.3815 30.7562 14.3331C29.2715 14.2632 28.7524 14.2551 25.3379 14.2551ZM25.3379 11.5654C28.9918 11.5654 29.4477 11.5789 30.8813 11.6461C32.3135 11.7134 33.2885 11.9379 34.1465 12.2715C35.0341 12.6131 35.7819 13.0757 36.5296 13.8221C37.2134 14.4943 37.7426 15.3075 38.0802 16.2051C38.4123 17.0617 38.6383 18.0381 38.7055 19.4703C38.7687 20.9039 38.7862 21.3598 38.7862 25.0137C38.7862 28.6676 38.7728 29.1235 38.7055 30.5571C38.6383 31.9893 38.4123 32.9643 38.0802 33.8223C37.7435 34.7204 37.2143 35.5338 36.5296 36.2054C35.8571 36.889 35.044 37.4181 34.1465 37.7559C33.2899 38.0881 32.3135 38.3141 30.8813 38.3813C29.4477 38.4445 28.9918 38.462 25.3379 38.462C21.684 38.462 21.2281 38.4485 19.7945 38.3813C18.3623 38.3141 17.3873 38.0881 16.5293 37.7559C15.6314 37.419 14.818 36.8898 14.1463 36.2054C13.4623 35.5332 12.9331 34.72 12.5957 33.8223C12.2622 32.9657 12.0376 31.9893 11.9703 30.5571C11.9071 29.1235 11.8896 28.6676 11.8896 25.0137C11.8896 21.3598 11.9031 20.9039 11.9703 19.4703C12.0376 18.0367 12.2622 17.0631 12.5957 16.2051C12.9322 15.307 13.4615 14.4936 14.1463 13.8221C14.8182 13.1378 15.6315 12.6087 16.5293 12.2715C17.3873 11.9379 18.361 11.7134 19.7945 11.6461C21.2281 11.5829 21.684 11.5654 25.3379 11.5654Z" fill="white"/>
</svg>
