<svg width="51" height="51" viewBox="0 0 51 51" fill="none" xmlns="http://www.w3.org/2000/svg">
<circle cx="25.0138" cy="25.0138" r="25.0138" fill="#673D89"/>
<path d="M38.462 25.0137C38.4643 26.7851 38.1155 28.5393 37.4358 30.1751C36.7561 31.8108 35.759 33.2957 34.5022 34.5438C33.2555 35.7883 31.7759 36.7748 30.1478 37.4471C28.5198 38.1194 26.7751 38.4643 25.0137 38.462C17.5862 38.462 11.5654 32.4412 11.5654 25.0137C11.5607 21.5654 12.8853 18.248 15.2637 15.7512C16.5187 14.427 18.0306 13.3727 19.7071 12.653C21.3836 11.9333 23.1893 11.5632 25.0137 11.5654C26.7751 11.5632 28.5198 11.908 30.1478 12.5803C31.7759 13.2526 33.2555 14.2392 34.5022 15.4836C35.759 16.7317 36.7561 18.2166 37.4358 19.8524C38.1155 21.4881 38.4643 23.2424 38.462 25.0137V25.0137Z" stroke="white" stroke-width="3.22759" stroke-linecap="round" stroke-linejoin="round"/>
<path d="M38.462 25.0136C36.4999 25.0136 31.087 24.274 26.2422 26.4008C20.9792 28.7119 17.1687 32.2965 15.5078 34.5263" stroke="white" stroke-width="3.22759" stroke-linecap="round" stroke-linejoin="round"/>
<path d="M19.9707 12.5435C22.0754 14.4861 26.6679 19.4317 28.3759 24.3416C30.0838 29.2516 30.7159 35.2885 31.1059 37.0065" stroke="white" stroke-width="3.22759" stroke-linecap="round" stroke-linejoin="round"/>
<path d="M11.6692 23.3326C14.2096 23.4859 20.9344 23.6237 25.2378 21.786C29.5413 19.9483 33.2443 16.5681 34.5145 15.4956M12.5743 30.1327C13.7593 33.0012 15.8965 35.3737 18.626 36.8508" stroke="white" stroke-width="3.22759" stroke-linecap="round" stroke-linejoin="round"/>
<path d="M11.5654 25.0137C11.5607 21.5654 12.8853 18.248 15.2637 15.7512M25.0137 11.5654C23.1893 11.5632 21.3836 11.9333 19.7071 12.653C18.0306 13.3727 16.5187 14.427 15.2637 15.7512M30.393 12.6843C31.9245 13.3544 33.318 14.3037 34.5022 15.4836C35.759 16.7317 36.7561 18.2166 37.4358 19.8524C38.1155 21.4881 38.4643 23.2424 38.462 25.0137C38.462 26.6692 38.1628 28.2554 37.6148 29.7206M25.0137 38.462C26.7751 38.4643 28.5198 38.1194 30.1478 37.4471C31.7759 36.7748 33.2555 35.7883 34.5022 34.5438" stroke="white" stroke-width="3.22759" stroke-linecap="round" stroke-linejoin="round"/>
</svg>
