<svg width="51" height="51" viewBox="0 0 51 51" fill="none" xmlns="http://www.w3.org/2000/svg">
<circle cx="25.662" cy="25.0138" r="25.0138" fill="#673D89"/>
<path d="M18.8571 15.6002C18.8567 16.3135 18.573 16.9975 18.0684 17.5017C17.5637 18.0058 16.8794 18.2888 16.1661 18.2885C15.4528 18.2881 14.7688 18.0044 14.2646 17.4998C13.7605 16.9951 13.4774 16.3108 13.4778 15.5975C13.4781 14.8841 13.7619 14.2002 14.2665 13.696C14.7712 13.1919 15.4554 12.9088 16.1688 12.9092C16.8821 12.9095 17.5661 13.1933 18.0703 13.6979C18.5744 14.2026 18.8575 14.8868 18.8571 15.6002ZM18.9378 20.2802H13.5585V37.1174H18.9378V20.2802ZM27.4371 20.2802H22.0847V37.1174H27.3833V28.2819C27.3833 23.3598 33.7981 22.9026 33.7981 28.2819V37.1174H39.1102V26.4529C39.1102 18.1554 29.6157 18.4647 27.3833 22.5395L27.4371 20.2802Z" fill="white"/>
</svg>
